<svg width="26" height="26" viewBox="0 0 26 26" fill="none" xmlns="http://www.w3.org/2000/svg">
<path d="M24.9751 18.9686V22.5816C24.9765 22.917 24.9078 23.249 24.7734 23.5563C24.6391 23.8636 24.442 24.1395 24.1948 24.3662C23.9477 24.593 23.6559 24.7656 23.3382 24.873C23.0204 24.9805 22.6838 25.0204 22.3497 24.9902C18.6438 24.5875 15.084 23.3212 11.9564 21.293C9.04657 19.4439 6.57952 16.9769 4.73048 14.067C2.69515 10.9252 1.42852 7.34809 1.03321 3.62554C1.00312 3.29251 1.0427 2.95685 1.14943 2.63995C1.25616 2.32305 1.42771 2.03185 1.65316 1.78488C1.8786 1.53791 2.153 1.34059 2.45888 1.20548C2.76476 1.07037 3.09542 1.00043 3.42982 1.00012H7.04278C7.62725 0.994364 8.19386 1.20133 8.63702 1.58245C9.08017 1.96356 9.36963 2.49281 9.45143 3.07155C9.60392 4.22778 9.88673 5.36305 10.2945 6.4557C10.4565 6.88675 10.4916 7.35522 10.3955 7.8056C10.2995 8.25597 10.0763 8.66938 9.75251 8.99682L8.22302 10.5263C9.93744 13.5414 12.4339 16.0378 15.449 17.7522L16.9784 16.2228C17.3059 15.899 17.7193 15.6758 18.1697 15.5798C18.62 15.4837 19.0885 15.5188 19.5196 15.6808C20.6122 16.0885 21.7475 16.3713 22.9037 16.5238C23.4887 16.6064 24.023 16.901 24.4049 17.3518C24.7869 17.8026 24.9898 18.378 24.9751 18.9686Z" stroke="white" stroke-linecap="round" stroke-linejoin="round"/>
</svg>
