<svg width="300" height="131" viewBox="0 0 300 131" fill="none" xmlns="http://www.w3.org/2000/svg">
<g clip-path="url(#clip0_1936_1775)">
<path d="M270.315 54.5966H94.4945C93.748 54.5966 93.032 54.8931 92.5041 55.421C91.9763 55.9489 91.6797 56.6649 91.6797 57.4114C91.6797 58.158 91.9763 58.8739 92.5041 59.4018C93.032 59.9297 93.748 60.2263 94.4945 60.2263H99.4747V127.566C99.4747 128.313 99.7713 129.029 100.299 129.557C100.827 130.085 101.543 130.381 102.29 130.381C103.036 130.381 103.752 130.085 104.28 129.557C104.808 129.029 105.104 128.313 105.104 127.566L105.147 60.2263H246.261L259.272 127.566C259.272 128.313 259.569 129.029 260.096 129.557C260.624 130.085 261.34 130.381 262.087 130.381C262.833 130.381 263.549 130.085 264.077 129.557C264.605 129.029 264.902 128.313 264.902 127.566L265.721 60.2263H270.315C271.061 60.2263 271.777 59.9297 272.305 59.4018C272.833 58.8739 273.13 58.158 273.13 57.4114C273.13 56.6649 272.833 55.9489 272.305 55.421C271.777 54.8931 271.061 54.5966 270.315 54.5966Z" fill="#222222"/>
<path d="M124.971 42.054V53.9742H95.1061C94.3234 54.0014 93.543 53.8742 92.8095 53.5998C92.0759 53.3255 91.4036 52.9093 90.8309 52.3751C90.2582 51.8409 89.7964 51.1992 89.4717 50.4865C89.147 49.7738 88.9659 49.0041 88.9387 48.2214C88.9114 47.4388 89.0386 46.6584 89.313 45.9248C89.5874 45.1913 90.0035 44.519 90.5377 43.9463C91.0719 43.3736 91.7137 42.9117 92.4264 42.5871C93.139 42.2624 93.9087 42.0813 94.6914 42.054C94.8296 42.0492 94.9678 42.0492 95.1061 42.054L124.971 42.054Z" fill="#CCCCCC"/>
<path d="M125.704 53.8825C125.704 54.0041 125.656 54.1206 125.57 54.2066C125.484 54.2926 125.367 54.3409 125.246 54.3409H94.5742C92.9092 54.3398 91.3127 53.6775 90.1357 52.4997C88.9588 51.3219 88.2976 49.725 88.2976 48.0599C88.2976 46.3949 88.9588 44.7979 90.1357 43.6201C91.3127 42.4424 92.9092 41.7801 94.5742 41.7789H125.246C125.306 41.7788 125.366 41.7905 125.422 41.8135C125.477 41.8365 125.528 41.8702 125.571 41.9128C125.613 41.9554 125.647 42.006 125.67 42.0617C125.693 42.1174 125.705 42.1771 125.705 42.2374C125.705 42.2977 125.693 42.3574 125.67 42.4131C125.647 42.4688 125.613 42.5194 125.571 42.562C125.528 42.6046 125.477 42.6383 125.422 42.6613C125.366 42.6843 125.306 42.696 125.246 42.6959H94.5742C93.153 42.698 91.7907 43.2641 90.7865 44.2698C89.7823 45.2756 89.2183 46.6387 89.2183 48.0599C89.2183 49.4812 89.7823 50.8443 90.7865 51.85C91.7907 52.8558 93.153 53.4219 94.5742 53.424H125.246C125.367 53.4241 125.484 53.4724 125.57 53.5583C125.656 53.6443 125.704 53.7609 125.704 53.8825Z" fill="#444444"/>
<path d="M124.971 44.8048H92.8778C92.8536 44.805 92.8303 44.7955 92.813 44.7784C92.7957 44.7614 92.7859 44.7382 92.7856 44.714C92.7854 44.6897 92.7948 44.6664 92.8118 44.649C92.8287 44.6317 92.8519 44.6218 92.8761 44.6215H124.971C124.995 44.6217 125.018 44.6315 125.035 44.6486C125.052 44.6658 125.061 44.689 125.061 44.7131C125.061 44.7373 125.052 44.7605 125.035 44.7777C125.018 44.7948 124.995 44.8046 124.971 44.8048Z" fill="#222222"/>
<path d="M124.971 47.0055H92.8778C92.8536 47.0056 92.8303 46.9962 92.813 46.9791C92.7957 46.9621 92.7859 46.9389 92.7856 46.9147C92.7854 46.8904 92.7948 46.8671 92.8118 46.8497C92.8287 46.8324 92.8519 46.8225 92.8761 46.8221H124.971C124.995 46.8224 125.018 46.8321 125.035 46.8493C125.052 46.8665 125.061 46.8897 125.061 46.9138C125.061 46.938 125.052 46.9612 125.035 46.9783C125.018 46.9955 124.995 47.0053 124.971 47.0055Z" fill="#222222"/>
<path d="M124.971 49.2061H92.8778C92.8536 49.2062 92.8303 49.1967 92.813 49.1797C92.7957 49.1627 92.7859 49.1395 92.7856 49.1152C92.7854 49.091 92.7948 49.0676 92.8118 49.0503C92.8287 49.0329 92.8519 49.023 92.8761 49.0227H124.971C124.995 49.0229 125.018 49.0327 125.035 49.0499C125.052 49.0671 125.061 49.0902 125.061 49.1144C125.061 49.1386 125.052 49.1617 125.035 49.1789C125.018 49.1961 124.995 49.2059 124.971 49.2061Z" fill="#222222"/>
<path d="M124.971 51.4068H92.8778C92.8536 51.4069 92.8303 51.3974 92.813 51.3804C92.7957 51.3634 92.7859 51.3402 92.7856 51.3159C92.7854 51.2917 92.7948 51.2683 92.8118 51.251C92.8287 51.2336 92.8519 51.2237 92.8761 51.2234H124.971C124.995 51.2236 125.018 51.2334 125.035 51.2506C125.052 51.2677 125.061 51.2909 125.061 51.3151C125.061 51.3392 125.052 51.3624 125.035 51.3796C125.018 51.3968 124.995 51.4065 124.971 51.4068Z" fill="#222222"/>
<path d="M119.341 29.4954V41.4156H89.4764C87.8957 41.4706 86.3579 40.8954 85.2013 39.8165C84.0447 38.7377 83.364 37.2436 83.309 35.6628C83.254 34.0821 83.8292 32.5443 84.9081 31.3877C85.9869 30.2311 87.4811 29.5504 89.0618 29.4954C89.1999 29.4906 89.3382 29.4906 89.4764 29.4954H119.341Z" fill="#CCCCCC"/>
<path d="M120.074 41.3239C120.074 41.4454 120.026 41.562 119.94 41.648C119.854 41.734 119.738 41.7823 119.616 41.7823H88.9446C87.2788 41.7823 85.6812 41.1206 84.5032 39.9427C83.3253 38.7648 82.6636 37.1672 82.6636 35.5013C82.6636 33.8355 83.3253 32.2379 84.5032 31.06C85.6812 29.8821 87.2788 29.2203 88.9446 29.2203H119.616C119.676 29.2203 119.736 29.2322 119.791 29.2552C119.847 29.2783 119.898 29.312 119.94 29.3546C119.983 29.3972 120.017 29.4477 120.04 29.5034C120.063 29.559 120.074 29.6186 120.074 29.6788C120.074 29.739 120.063 29.7986 120.04 29.8542C120.017 29.9099 119.983 29.9604 119.94 30.003C119.898 30.0456 119.847 30.0793 119.791 30.1024C119.736 30.1254 119.676 30.1373 119.616 30.1373H88.9446C87.5219 30.1373 86.1576 30.7024 85.1516 31.7084C84.1456 32.7143 83.5805 34.0787 83.5805 35.5013C83.5805 36.924 84.1456 38.2884 85.1516 39.2943C86.1576 40.3003 87.5219 40.8654 88.9446 40.8654H119.616C119.738 40.8655 119.854 40.9138 119.94 40.9997C120.026 41.0857 120.074 41.2023 120.074 41.3239Z" fill="#222222"/>
<path d="M119.341 32.2462H87.2482C87.2239 32.2464 87.2006 32.2369 87.1833 32.2199C87.1661 32.2028 87.1562 32.1797 87.156 32.1554C87.1558 32.1311 87.1652 32.1078 87.1821 32.0904C87.1991 32.0731 87.2223 32.0632 87.2465 32.0629H119.341C119.365 32.0631 119.388 32.0729 119.405 32.09C119.422 32.1072 119.432 32.1304 119.432 32.1546C119.432 32.1787 119.422 32.2019 119.405 32.2191C119.388 32.2362 119.365 32.246 119.341 32.2462Z" fill="#222222"/>
<path d="M119.341 34.4468H87.2482C87.2239 34.4469 87.2006 34.4375 87.1833 34.4204C87.1661 34.4034 87.1562 34.3802 87.156 34.356C87.1558 34.3317 87.1652 34.3084 87.1821 34.291C87.1991 34.2737 87.2223 34.2637 87.2465 34.2634H119.341C119.365 34.2637 119.388 34.2734 119.405 34.2906C119.422 34.3078 119.432 34.331 119.432 34.3551C119.432 34.3793 119.422 34.4025 119.405 34.4196C119.388 34.4368 119.365 34.4466 119.341 34.4468Z" fill="#222222"/>
<path d="M119.341 36.6475H87.2482C87.2239 36.6476 87.2006 36.6381 87.1833 36.6211C87.1661 36.6041 87.1562 36.5809 87.156 36.5566C87.1558 36.5324 87.1652 36.509 87.1821 36.4917C87.1991 36.4743 87.2223 36.4644 87.2465 36.4641H119.341C119.365 36.4644 119.388 36.4741 119.405 36.4913C119.422 36.5085 119.432 36.5316 119.432 36.5558C119.432 36.58 119.422 36.6031 119.405 36.6203C119.388 36.6375 119.365 36.6472 119.341 36.6475Z" fill="#222222"/>
<path d="M119.341 38.8482H87.2482C87.2239 38.8483 87.2006 38.8388 87.1833 38.8218C87.1661 38.8048 87.1562 38.7816 87.156 38.7573C87.1558 38.7331 87.1652 38.7097 87.1821 38.6924C87.1991 38.675 87.2223 38.6651 87.2465 38.6648H119.341C119.365 38.665 119.388 38.6748 119.405 38.692C119.422 38.7091 119.432 38.7323 119.432 38.7565C119.432 38.7806 119.422 38.8038 119.405 38.821C119.388 38.8382 119.365 38.8479 119.341 38.8482Z" fill="#222222"/>
<path d="M154.082 96.7769V86.3836C154.082 85.9242 153.9 85.4836 153.575 85.1587C153.25 84.8339 152.81 84.6514 152.35 84.6514H112.942C112.483 84.6514 112.042 84.8339 111.717 85.1587C111.392 85.4836 111.21 85.9242 111.21 86.3836V96.7769H154.082Z" fill="#222222"/>
<path d="M154.082 100.674H111.21V114.099H154.082V100.674Z" fill="#222222"/>
<path d="M111.21 117.997V128.39C111.21 128.849 111.392 129.29 111.717 129.615C112.042 129.94 112.483 130.122 112.942 130.122H152.35C152.81 130.122 153.25 129.94 153.575 129.615C153.9 129.29 154.082 128.849 154.082 128.39V117.997H111.21Z" fill="#222222"/>
<path d="M132.43 92.4464C133.147 92.4464 133.729 91.8647 133.729 91.1472C133.729 90.4297 133.147 89.848 132.43 89.848C131.712 89.848 131.13 90.4297 131.13 91.1472C131.13 91.8647 131.712 92.4464 132.43 92.4464Z" fill="white"/>
<path d="M132.43 109.768C133.147 109.768 133.729 109.187 133.729 108.469C133.729 107.752 133.147 107.17 132.43 107.17C131.712 107.17 131.13 107.752 131.13 108.469C131.13 109.187 131.712 109.768 132.43 109.768Z" fill="white"/>
<path d="M132.499 126.724C133.217 126.724 133.798 126.142 133.798 125.425C133.798 124.707 133.217 124.126 132.499 124.126C131.782 124.126 131.2 124.707 131.2 125.425C131.2 126.142 131.782 126.724 132.499 126.724Z" fill="white"/>
<path d="M149.222 72.801V84.7211H119.357C117.777 84.775 116.24 84.1993 115.085 83.1206C113.929 82.0419 113.249 80.5484 113.194 78.9684C113.139 77.3885 113.713 75.8513 114.791 74.6948C115.869 73.5383 117.362 72.8571 118.942 72.801C119.08 72.7962 119.219 72.7962 119.357 72.801H149.222Z" fill="#CCCCCC"/>
<path d="M149.955 84.6294C149.955 84.751 149.907 84.8676 149.821 84.9535C149.735 85.0395 149.618 85.0878 149.497 85.0879H118.825C117.16 85.0883 115.562 84.4272 114.384 83.2501C113.206 82.073 112.544 80.4761 112.543 78.8107C112.542 77.1452 113.202 75.5476 114.379 74.369C115.556 73.1904 117.152 72.5275 118.818 72.5259H149.497C149.557 72.5257 149.617 72.5375 149.673 72.5604C149.728 72.5834 149.779 72.6171 149.822 72.6597C149.864 72.7023 149.898 72.7529 149.921 72.8086C149.945 72.8643 149.956 72.924 149.956 72.9843C149.956 73.0447 149.945 73.1044 149.921 73.1601C149.898 73.2158 149.864 73.2664 149.822 73.309C149.779 73.3515 149.728 73.3853 149.673 73.4083C149.617 73.4312 149.557 73.443 149.497 73.4428H118.825C117.404 73.4447 116.041 74.0106 115.037 75.0164C114.032 76.0221 113.468 77.3855 113.468 78.8069C113.468 80.2283 114.032 81.5916 115.037 82.5974C116.041 83.6031 117.404 84.1691 118.825 84.1709H149.497C149.618 84.171 149.735 84.2193 149.821 84.3053C149.907 84.3913 149.955 84.5078 149.955 84.6294Z" fill="#222222"/>
<path d="M149.222 75.5517H117.129C117.105 75.5518 117.081 75.5423 117.064 75.5253C117.047 75.5083 117.037 75.4851 117.037 75.4608C117.037 75.4366 117.046 75.4132 117.063 75.3959C117.08 75.3785 117.103 75.3686 117.127 75.3683H149.222C149.246 75.3685 149.269 75.3783 149.286 75.3955C149.303 75.4126 149.313 75.4358 149.313 75.46C149.313 75.4841 149.303 75.5073 149.286 75.5245C149.269 75.5417 149.246 75.5514 149.222 75.5517H149.222Z" fill="#222222"/>
<path d="M149.222 77.7524H117.129C117.105 77.7525 117.081 77.743 117.064 77.726C117.047 77.7089 117.037 77.6858 117.037 77.6615C117.037 77.6373 117.046 77.6139 117.063 77.5966C117.08 77.5792 117.103 77.5693 117.127 77.569H149.222C149.246 77.5692 149.269 77.579 149.286 77.5962C149.303 77.6133 149.313 77.6365 149.313 77.6607C149.313 77.6848 149.303 77.708 149.286 77.7252C149.269 77.7424 149.246 77.7521 149.222 77.7524H149.222Z" fill="#222222"/>
<path d="M149.222 79.953H117.129C117.105 79.9532 117.081 79.9437 117.064 79.9267C117.047 79.9096 117.037 79.8864 117.037 79.8622C117.037 79.8379 117.046 79.8146 117.063 79.7972C117.08 79.7799 117.103 79.77 117.127 79.7697H149.222C149.246 79.7699 149.269 79.7797 149.286 79.7968C149.303 79.814 149.313 79.8372 149.313 79.8613C149.313 79.8855 149.303 79.9087 149.286 79.9259C149.269 79.943 149.246 79.9528 149.222 79.953H149.222Z" fill="#222222"/>
<path d="M149.222 82.1536H117.129C117.105 82.1537 117.081 82.1442 117.064 82.1272C117.047 82.1102 117.037 82.087 117.037 82.0627C117.037 82.0385 117.046 82.0151 117.063 81.9978C117.08 81.9804 117.103 81.9705 117.127 81.9702H149.222C149.246 81.9705 149.269 81.9802 149.286 81.9974C149.303 82.0146 149.313 82.0377 149.313 82.0619C149.313 82.0861 149.303 82.1092 149.286 82.1264C149.269 82.1436 149.246 82.1534 149.222 82.1536H149.222Z" fill="#222222"/>
<path d="M114.147 25.5189H100.541C100.412 25.5188 100.284 25.5484 100.168 25.6055L96.7343 27.3247C96.6213 27.3728 96.5249 27.453 96.4572 27.5554C96.3894 27.6578 96.3533 27.7779 96.3533 27.9007C96.3533 28.0235 96.3894 28.1436 96.4572 28.246C96.5249 28.3484 96.6213 28.4286 96.7343 28.4766L100.168 30.1959C100.284 30.2529 100.412 30.2826 100.541 30.2825H114.147C114.335 30.2933 114.519 30.2299 114.66 30.1058C114.801 29.9818 114.888 29.8072 114.901 29.6199V26.1815C114.888 25.9941 114.801 25.8195 114.66 25.6955C114.519 25.5715 114.335 25.508 114.147 25.5189Z" fill="#222222"/>
<path d="M114.901 26.1815V29.6199C114.888 29.8073 114.801 29.9819 114.66 30.1059C114.519 30.2299 114.335 30.2933 114.147 30.2825H111.437V25.5189H114.147C114.335 25.508 114.519 25.5715 114.66 25.6955C114.801 25.8195 114.888 25.9941 114.901 26.1815Z" fill="#444444"/>
<path d="M32.572 92.8938C34.3241 93.5096 36.2052 93.6639 38.0342 93.3417C39.8631 93.0195 41.5783 92.2318 43.0145 91.0543C46.672 87.9845 47.8187 82.9269 48.7518 78.2439C49.6717 73.6268 50.5916 69.0096 51.5116 64.3925L45.7336 68.3709C41.5785 71.232 37.3297 74.1847 34.4527 78.3289C31.5757 82.473 30.3199 88.1301 32.6315 92.6143" fill="url(#paint0_linear_1936_1775)"/>
<path d="M33.0657 109.664C32.4809 105.404 31.8796 101.09 32.2898 96.7842C32.6541 92.9606 33.8206 89.2259 36.1956 86.1638C37.4562 84.5415 38.9901 83.1515 40.7284 82.0563C41.1817 81.7702 41.5989 82.4886 41.1476 82.7734C38.1398 84.6743 35.8135 87.4812 34.5039 90.7895C33.0575 94.4684 32.8252 98.4788 33.0745 102.387C33.2252 104.75 33.5447 107.098 33.8666 109.443C33.892 109.549 33.8761 109.661 33.8223 109.756C33.7685 109.85 33.6806 109.921 33.5766 109.954C33.4704 109.982 33.3572 109.968 33.2616 109.914C33.166 109.859 33.0956 109.77 33.0657 109.664L33.0657 109.664Z" fill="#CCCCCC"/>
<path d="M38.6985 102.126C39.4499 103.268 40.4828 104.197 41.6976 104.824C42.9124 105.451 44.2682 105.755 45.6344 105.706C49.1455 105.539 52.0727 103.089 54.7076 100.762L62.5014 93.8808L57.3432 93.634C53.6338 93.4565 49.8286 93.2909 46.2955 94.4348C42.7624 95.5787 39.504 98.3317 38.8579 101.989" fill="url(#paint1_linear_1936_1775)"/>
<path d="M31.4131 112.113C34.2278 107.132 37.4927 101.597 43.3264 99.8276C44.9485 99.3373 46.6494 99.1617 48.3374 99.3102C48.8694 99.356 48.7366 100.176 48.2055 100.13C45.376 99.8954 42.552 100.643 40.2088 102.246C37.9541 103.781 36.1985 105.914 34.7126 108.177C33.8024 109.563 32.9871 111.008 32.1717 112.451C31.9111 112.912 31.1494 112.579 31.4131 112.113L31.4131 112.113Z" fill="#CCCCCC"/>
<path d="M26.9032 117.355C26.998 116.256 27.3925 115.204 28.0438 114.314C28.6951 113.424 29.5782 112.729 30.5969 112.306V109.427H35.4261V112.397C36.3947 112.841 37.2282 113.534 37.8417 114.404C38.4553 115.275 38.8269 116.293 38.9187 117.355L40.0543 130.555H25.7676L26.9032 117.355Z" fill="#CCCCCC"/>
<path d="M191.139 54.3259L189.702 53.721L188.717 46.5192H175.593L174.524 53.6916L173.239 54.3342C173.178 54.365 173.128 54.4156 173.099 54.4779C173.07 54.5402 173.063 54.6105 173.078 54.6774C173.094 54.7443 173.132 54.8039 173.186 54.8466C173.24 54.8892 173.307 54.9125 173.376 54.9125H191.02C191.091 54.9125 191.159 54.8881 191.214 54.8435C191.268 54.7988 191.306 54.7367 191.32 54.6676C191.333 54.5986 191.323 54.5268 191.29 54.4645C191.257 54.4022 191.204 54.3533 191.139 54.3259Z" fill="#333333"/>
<path d="M214.461 47.4774H149.992C149.654 47.4766 149.33 47.3417 149.091 47.1023C148.852 46.8628 148.718 46.5384 148.718 46.2001V37.1091H215.736V46.2001C215.735 46.5384 215.601 46.8628 215.362 47.1022C215.124 47.3417 214.799 47.4766 214.461 47.4774Z" fill="#222222"/>
<path d="M215.803 41.4058H148.659V2.50747C148.659 2.09925 148.822 1.70789 149.11 1.41924C149.399 1.13059 149.79 0.96823 150.199 0.967773H214.263C214.671 0.96823 215.063 1.1306 215.351 1.41924C215.64 1.70789 215.802 2.09925 215.803 2.50747L215.803 41.4058Z" fill="#222222"/>
<path d="M211.793 38.5825H152.669C152.354 38.5822 152.053 38.457 151.83 38.2345C151.608 38.0119 151.483 37.7102 151.482 37.3955V4.97796C151.483 4.66325 151.608 4.36152 151.83 4.13898C152.053 3.91643 152.354 3.79125 152.669 3.79089H211.793C212.107 3.79125 212.409 3.91644 212.632 4.13898C212.854 4.36152 212.979 4.66325 212.98 4.97796V37.3955C212.979 37.7102 212.854 38.0119 212.632 38.2345C212.409 38.457 212.107 38.5822 211.793 38.5825Z" fill="white"/>
<path d="M196.22 50.021C196.602 49.6685 197.057 49.4039 197.552 49.2459C198.047 49.0879 198.57 49.0404 199.086 49.1067C199.601 49.173 200.096 49.3515 200.535 49.6296C200.974 49.9077 201.346 50.2787 201.626 50.7164L209.623 49.2946L211.673 53.9437L200.351 55.7929C199.584 56.2147 198.69 56.3406 197.837 56.1469C196.984 55.9531 196.231 55.4531 195.722 54.7417C195.213 54.0302 194.982 53.1567 195.074 52.2866C195.166 51.4166 195.574 50.6105 196.22 50.021Z" fill="#FFB6B6"/>
<path d="M203.625 55.9573L211.962 55.8534L213.017 55.8391L229.979 55.6254C229.979 55.6254 234.586 51.2309 238.597 46.7065L238.034 42.6403C237.486 38.6497 235.506 34.9942 232.464 32.3542C226.719 36.1927 223.388 43.7906 223.388 43.7906L212.871 46.3061L211.819 46.5578L205.284 48.1194L203.625 55.9573Z" fill="#444444"/>
<path d="M246.304 80.9501H230.741C230.741 81.6169 213.729 82.1581 213.729 82.1581C213.354 82.4406 213.012 82.7648 212.71 83.1245C211.802 84.2076 211.305 85.5766 211.308 86.9901V87.9565C211.309 89.5582 211.945 91.0942 213.078 92.2268C214.211 93.3594 215.747 93.9959 217.348 93.9965H246.304C247.905 93.9951 249.441 93.3583 250.573 92.2259C251.705 91.0935 252.342 89.558 252.344 87.9565V86.9901C252.341 85.3889 251.704 83.8539 250.572 82.7216C249.44 81.5894 247.905 80.9523 246.304 80.9501Z" fill="#444444"/>
<path d="M234.987 93.7566H228.705V130.014H234.987V93.7566Z" fill="#444444"/>
<path d="M210.826 129.794C210.826 130.472 220.345 130.056 232.087 130.056C243.829 130.056 253.348 130.472 253.348 129.794C253.348 129.115 243.829 123.733 232.087 123.733C220.345 123.733 210.826 129.115 210.826 129.794Z" fill="#444444"/>
<path d="M206.607 125.651L201.932 125.651L199.708 107.618L206.607 107.619L206.607 125.651Z" fill="#FFB6B6"/>
<path d="M207.799 130.182L192.725 130.182V129.991C192.725 128.435 193.343 126.943 194.443 125.843C195.544 124.742 197.036 124.124 198.592 124.124H198.593L207.799 124.124L207.799 130.182Z" fill="#222222"/>
<path d="M192.789 125.651L188.114 125.651L185.89 107.618L192.79 107.619L192.789 125.651Z" fill="#FFB6B6"/>
<path d="M193.982 130.182L178.907 130.182V129.991C178.908 128.435 179.526 126.943 180.626 125.843C181.726 124.742 183.219 124.124 184.775 124.124H184.775L193.982 124.124L193.982 130.182Z" fill="#222222"/>
<path d="M234.667 21.837C239.156 21.837 242.796 18.1977 242.796 13.7084C242.796 9.21913 239.156 5.57983 234.667 5.57983C230.178 5.57983 226.539 9.21913 226.539 13.7084C226.539 18.1977 230.178 21.837 234.667 21.837Z" fill="#FFB6B6"/>
<path d="M247.823 69.4024C247.823 69.4024 250.551 83.8244 240.173 85.661C229.796 87.4975 214.816 88.7883 214.816 88.7883L208.089 120.174L199.052 119.367C199.052 119.367 200.254 81.5858 203.21 78.63C206.165 75.6741 224.847 66.8236 224.847 66.8236L247.823 69.4024Z" fill="#222222"/>
<path d="M227.556 63.358L223.017 67.9111C223.017 67.9111 190.246 73.1896 188.982 80.7586C187.074 92.1859 184.819 117.035 184.819 117.035L194.672 116.297L198.536 88.0493L214.3 84.4633L232.236 74.6888L227.556 63.358Z" fill="#222222"/>
<path d="M242.489 8.85623C241.687 7.34229 240.667 4.32503 239.048 3.76544C238.148 3.46721 237.219 3.26918 236.276 3.17494L233.523 4.23373L235.021 3.06848C234.73 3.0511 234.438 3.0369 234.147 3.02586L232.289 3.74023L233.239 3.00114C231.508 2.98337 229.72 3.16342 228.379 4.21756C227.235 5.11621 226.102 8.52048 225.918 9.96348C225.722 11.3439 225.791 12.749 226.12 14.1038L226.591 14.5511C226.755 14.1738 226.879 13.78 226.96 13.3764C227.128 12.6223 227.452 11.9116 227.911 11.2896C228.369 10.6675 228.952 10.1479 229.623 9.76365L229.648 9.74921C230.437 9.3052 231.395 9.32567 232.299 9.35823L236.596 9.51285C237.63 9.55005 238.743 9.61546 239.549 10.2639C240.061 10.7422 240.464 11.3257 240.729 11.9742C241.13 12.7825 241.913 15.8311 241.913 15.8311C241.913 15.8311 242.355 15.2556 242.567 15.6839C242.908 14.5665 243.115 13.4126 243.184 12.2465C243.252 11.0752 243.012 9.90651 242.489 8.85623Z" fill="#222222"/>
<path d="M270.919 17.2781C270.401 17.3123 269.896 17.4597 269.441 17.71C268.985 17.9603 268.59 18.3074 268.284 18.7269C267.977 19.1463 267.766 19.628 267.666 20.1378C267.565 20.6476 267.578 21.1733 267.702 21.6778L261.166 26.4995L263.127 31.1864L272.262 24.2476C273.096 23.9819 273.803 23.4197 274.25 22.6676C274.697 21.9154 274.852 21.0254 274.686 20.1663C274.521 19.3073 274.046 18.5388 273.352 18.0064C272.657 17.4741 271.792 17.215 270.919 17.2781Z" fill="#FFB6B6"/>
<path d="M269.867 27.1216L253.481 45.3208C253.481 45.3208 245.644 42.8122 239.584 40.0924L236.861 31.7301C236.229 29.7901 235.959 27.7504 236.065 25.7128C244.467 23.4771 254.239 31.7956 254.239 31.7956L266.505 22.1876L269.867 27.1216Z" fill="#444444"/>
<path d="M231.631 70.7466C228.708 69.7367 225.684 68.6924 222.424 68.3004L222.284 68.2835L222.322 68.1479C225.698 56.2963 224.855 48.7149 223.201 37.3267C222.849 34.8703 223.301 32.3659 224.49 30.1875C225.678 28.009 227.539 26.2733 229.795 25.2393L229.815 25.2303L239.128 24.6385L239.149 24.6372L245.922 26.6292C246.897 26.9179 247.749 27.5181 248.35 28.3378C248.951 29.1575 249.266 30.1515 249.248 31.1676C249.174 34.9128 249.33 39.0943 249.495 43.5211C249.864 53.4526 250.246 63.7222 248.078 70.3854L248.066 70.4203L248.037 70.443C246.044 72.0668 243.546 72.9442 240.975 72.9239C237.934 72.9239 234.832 71.8523 231.631 70.7466Z" fill="#444444"/>
<path d="M299.241 130.968H0.433056C0.318202 130.968 0.208054 130.922 0.126841 130.841C0.0456274 130.76 0 130.65 0 130.535C0 130.42 0.0456274 130.31 0.126841 130.229C0.208054 130.147 0.318202 130.102 0.433056 130.102H299.241C299.356 130.102 299.466 130.147 299.547 130.229C299.628 130.31 299.674 130.42 299.674 130.535C299.674 130.65 299.628 130.76 299.547 130.841C299.466 130.922 299.356 130.968 299.241 130.968Z" fill="#222222"/>
</g>
<defs>
<linearGradient id="paint0_linear_1936_1775" x1="30.206" y1="47.3729" x2="56.3921" y2="58.5505" gradientUnits="userSpaceOnUse">
<stop stop-color="#00CE53"/>
<stop offset="1" stop-color="#FFFB93"/>
</linearGradient>
<linearGradient id="paint1_linear_1936_1775" x1="37.2463" y1="86.3733" x2="52.181" y2="104.401" gradientUnits="userSpaceOnUse">
<stop stop-color="#00CE53"/>
<stop offset="1" stop-color="#FFFB93"/>
</linearGradient>
<clipPath id="clip0_1936_1775">
<rect width="299.674" height="130" fill="white" transform="translate(0 0.967773)"/>
</clipPath>
</defs>
</svg>
