<svg width="15" height="15" viewBox="0 0 15 15" fill="none" xmlns="http://www.w3.org/2000/svg">
<path d="M13.8766 2.58618H1.12339C0.50294 2.58618 0 3.08912 0 3.70957V5.86204H15V3.70957C15 3.08912 14.4971 2.58618 13.8766 2.58618Z" fill="#FAB446"/>
<path d="M0 11.2904C0 11.9108 0.50294 12.4138 1.12339 12.4138H13.8766C14.497 12.4138 15 11.9109 15 11.2904V9.13794H0V11.2904Z" fill="#73AF00"/>
<path d="M15 5.86194H0V9.13762H15V5.86194Z" fill="#F5F5F5"/>
<path d="M7.50043 8.89002C6.73391 8.89002 6.11035 8.26646 6.11035 7.49994C6.11035 6.73342 6.73391 6.10986 7.50043 6.10986C8.26695 6.10986 8.89051 6.73342 8.89051 7.49994C8.89051 8.26646 8.26695 8.89002 7.50043 8.89002ZM7.50043 6.36847C6.87646 6.36847 6.36895 6.87598 6.36895 7.49994C6.36895 8.12391 6.87646 8.63142 7.50043 8.63142C8.12439 8.63142 8.6319 8.12391 8.6319 7.49994C8.6319 6.87598 8.12439 6.36847 7.50043 6.36847Z" fill="#41479B"/>
<path d="M7.50036 7.65758C7.58739 7.65758 7.65795 7.58703 7.65795 7.5C7.65795 7.41296 7.58739 7.34241 7.50036 7.34241C7.41333 7.34241 7.34277 7.41296 7.34277 7.5C7.34277 7.58703 7.41333 7.65758 7.50036 7.65758Z" fill="#41479B"/>
<path d="M7.50002 7.52363L7.09953 7.56406L6.23926 7.52363V7.47634L7.09953 7.43591L7.50002 7.47634V7.52363Z" fill="#41479B"/>
<path d="M7.5 7.52363L7.90049 7.56406L8.76076 7.52363V7.47634L7.90049 7.43591L7.5 7.47634V7.52363Z" fill="#41479B"/>
<path d="M7.47695 7.4999L7.43652 7.09941L7.47695 6.23914H7.52424L7.56467 7.09941L7.52424 7.4999H7.47695Z" fill="#41479B"/>
<path d="M7.47695 7.5L7.43652 7.90049L7.47695 8.76076H7.52424L7.56467 7.90049L7.52424 7.5H7.47695Z" fill="#41479B"/>
<path d="M7.4833 7.5167L7.17152 7.26214L6.5918 6.62522L6.62522 6.5918L7.26214 7.17152L7.5167 7.4833L7.4833 7.5167Z" fill="#41479B"/>
<path d="M7.4834 7.51668L7.73796 7.82845L8.37487 8.40818L8.4083 8.37475L7.82857 7.73784L7.5168 7.48328L7.4834 7.51668Z" fill="#41479B"/>
<path d="M7.4834 7.4833L7.73796 7.17152L8.37487 6.5918L8.4083 6.62522L7.82857 7.26214L7.5168 7.5167L7.4834 7.4833Z" fill="#41479B"/>
<path d="M7.4833 7.48328L7.17152 7.73784L6.5918 8.37475L6.62522 8.40818L7.26214 7.82845L7.5167 7.51668L7.4833 7.48328Z" fill="#41479B"/>
<path d="M7.50906 7.52174L7.15451 7.71234L6.34428 8.0042L6.32617 7.96052L7.1055 7.59396L7.49096 7.47803L7.50906 7.52174Z" fill="#41479B"/>
<path d="M7.50932 7.52178L7.89478 7.40585L8.6741 7.03929L8.656 6.99561L7.84576 7.28746L7.49121 7.47807L7.50932 7.52178Z" fill="#41479B"/>
<path d="M7.47855 7.50894L7.28795 7.15439L6.99609 6.34416L7.03978 6.32605L7.40634 7.10538L7.52227 7.49083L7.47855 7.50894Z" fill="#41479B"/>
<path d="M7.47852 7.50895L7.59444 7.89441L7.96101 8.67374L8.00469 8.65563L7.71283 7.8454L7.52223 7.49084L7.47852 7.50895Z" fill="#41479B"/>
<path d="M7.49096 7.52178L7.1055 7.40585L6.32617 7.03929L6.34428 6.99561L7.15451 7.28746L7.50906 7.47807L7.49096 7.52178Z" fill="#41479B"/>
<path d="M7.49121 7.52174L7.84576 7.71234L8.656 8.0042L8.6741 7.96052L7.89478 7.59396L7.50932 7.47803L7.49121 7.52174Z" fill="#41479B"/>
<path d="M7.47852 7.49083L7.59444 7.10538L7.96101 6.32605L8.00469 6.34416L7.71283 7.15439L7.52223 7.50894L7.47852 7.49083Z" fill="#41479B"/>
<path d="M7.47855 7.49084L7.28795 7.8454L6.99609 8.65563L7.03978 8.67374L7.40634 7.89441L7.52227 7.50895L7.47855 7.49084Z" fill="#41479B"/>
<path d="M7.49969 7.71263C7.61709 7.71263 7.71227 7.61746 7.71227 7.50005C7.71227 7.38265 7.61709 7.28748 7.49969 7.28748C7.38228 7.28748 7.28711 7.38265 7.28711 7.50005C7.28711 7.61746 7.38228 7.71263 7.49969 7.71263Z" fill="#F5F5F5"/>
<path d="M7.49954 7.6275C7.56994 7.6275 7.62701 7.57043 7.62701 7.50003C7.62701 7.42963 7.56994 7.37256 7.49954 7.37256C7.42914 7.37256 7.37207 7.42963 7.37207 7.50003C7.37207 7.57043 7.42914 7.6275 7.49954 7.6275Z" fill="#41479B"/>
</svg>
