<svg width="24" height="26" viewBox="0 0 24 26" fill="none" xmlns="http://www.w3.org/2000/svg">
<path d="M20.2 11.8H3.4C2.07452 11.8 1 12.8746 1 14.2V22.6C1 23.9255 2.07452 25 3.4 25H20.2C21.5255 25 22.6 23.9255 22.6 22.6V14.2C22.6 12.8746 21.5255 11.8 20.2 11.8Z" stroke="white" stroke-linecap="round" stroke-linejoin="round"/>
<path d="M5.7998 11.8V7C5.7998 5.4087 6.43195 3.88258 7.55716 2.75736C8.68238 1.63214 10.2085 1 11.7998 1C13.3911 1 14.9172 1.63214 16.0424 2.75736C17.1677 3.88258 17.7998 5.4087 17.7998 7V11.8" stroke="white" stroke-linecap="round" stroke-linejoin="round"/>
</svg>
